<mxfile host="Electron" modified="2024-07-13T08:24:05.496Z" agent="Mozilla/5.0 (Macintosh; Intel Mac OS X 10_15_7) AppleWebKit/537.36 (KHTML, like Gecko) draw.io/24.6.4 Chrome/124.0.6367.207 Electron/30.0.6 Safari/537.36" etag="Rz95G8KnRj4E-tdt0w9S" version="24.6.4" type="device">
  <diagram name="페이지-1" id="98wDwg4RLzEAr1VFV9uF">
    <mxGraphModel dx="996" dy="894" grid="1" gridSize="10" guides="1" tooltips="1" connect="1" arrows="1" fold="1" page="1" pageScale="1" pageWidth="827" pageHeight="1169" math="0" shadow="0">
      <root>
        <mxCell id="0" />
        <mxCell id="1" parent="0" />
        <mxCell id="IenfhvUu4Ty_uGgIa3Qu-1" value="order" style="rounded=1;whiteSpace=wrap;html=1;horizontal=1;verticalAlign=top;fontStyle=1;fontSize=14;" vertex="1" parent="1">
          <mxGeometry x="110" y="50" width="631" height="450" as="geometry" />
        </mxCell>
        <mxCell id="IenfhvUu4Ty_uGgIa3Qu-2" value="application (응용 영역)" style="rounded=1;whiteSpace=wrap;html=1;verticalAlign=top;fontSize=14;fontStyle=1;fillColor=#dae8fc;strokeColor=#6c8ebf;" vertex="1" parent="1">
          <mxGeometry x="325" y="100" width="200" height="120" as="geometry" />
        </mxCell>
        <mxCell id="IenfhvUu4Ty_uGgIa3Qu-3" value="OrderService" style="rounded=0;whiteSpace=wrap;html=1;" vertex="1" parent="1">
          <mxGeometry x="370" y="150" width="110" height="40" as="geometry" />
        </mxCell>
        <mxCell id="IenfhvUu4Ty_uGgIa3Qu-4" value="domain (도메인 영역)" style="rounded=1;whiteSpace=wrap;html=1;fontSize=14;fontStyle=1;verticalAlign=top;fillColor=#f8cecc;strokeColor=#b85450;" vertex="1" parent="1">
          <mxGeometry x="140" y="290" width="570" height="170" as="geometry" />
        </mxCell>
        <mxCell id="IenfhvUu4Ty_uGgIa3Qu-6" value="&amp;lt;&amp;lt;interface&amp;gt;&amp;gt;&lt;div&gt;&lt;br&gt;&lt;/div&gt;&lt;div&gt;OrderRepository&lt;/div&gt;" style="rounded=0;whiteSpace=wrap;html=1;" vertex="1" parent="1">
          <mxGeometry x="175" y="350" width="125" height="50" as="geometry" />
        </mxCell>
        <mxCell id="IenfhvUu4Ty_uGgIa3Qu-7" value="&lt;div&gt;Root Aggregate&lt;/div&gt;&lt;div&gt;&lt;br&gt;&lt;/div&gt;Order" style="rounded=0;whiteSpace=wrap;html=1;" vertex="1" parent="1">
          <mxGeometry x="320" y="350" width="110" height="50" as="geometry" />
        </mxCell>
        <mxCell id="IenfhvUu4Ty_uGgIa3Qu-8" value="&lt;div&gt;도메인 서비스&lt;/div&gt;&lt;div&gt;&lt;br&gt;&lt;/div&gt;DiscountCalculationService" style="rounded=0;whiteSpace=wrap;html=1;" vertex="1" parent="1">
          <mxGeometry x="480" y="350" width="190" height="50" as="geometry" />
        </mxCell>
        <mxCell id="IenfhvUu4Ty_uGgIa3Qu-10" style="edgeStyle=orthogonalEdgeStyle;rounded=0;orthogonalLoop=1;jettySize=auto;html=1;dashed=1;endArrow=open;endFill=0;" edge="1" parent="1" source="IenfhvUu4Ty_uGgIa3Qu-3" target="IenfhvUu4Ty_uGgIa3Qu-7">
          <mxGeometry relative="1" as="geometry">
            <Array as="points">
              <mxPoint x="400" y="270" />
              <mxPoint x="375" y="270" />
            </Array>
          </mxGeometry>
        </mxCell>
        <mxCell id="IenfhvUu4Ty_uGgIa3Qu-11" style="edgeStyle=orthogonalEdgeStyle;rounded=0;orthogonalLoop=1;jettySize=auto;html=1;entryX=0.5;entryY=0;entryDx=0;entryDy=0;endArrow=open;endFill=0;" edge="1" parent="1" source="IenfhvUu4Ty_uGgIa3Qu-3" target="IenfhvUu4Ty_uGgIa3Qu-8">
          <mxGeometry relative="1" as="geometry">
            <Array as="points">
              <mxPoint x="460" y="270" />
              <mxPoint x="575" y="270" />
            </Array>
          </mxGeometry>
        </mxCell>
        <mxCell id="IenfhvUu4Ty_uGgIa3Qu-9" style="edgeStyle=orthogonalEdgeStyle;rounded=0;orthogonalLoop=1;jettySize=auto;html=1;endArrow=open;endFill=0;" edge="1" parent="1" source="IenfhvUu4Ty_uGgIa3Qu-3" target="IenfhvUu4Ty_uGgIa3Qu-6">
          <mxGeometry relative="1" as="geometry" />
        </mxCell>
      </root>
    </mxGraphModel>
  </diagram>
</mxfile>
